<svg width="126" height="126" viewBox="0 0 126 126" fill="none" xmlns="http://www.w3.org/2000/svg">
<path d="M126 36.75H115.5V10.5H89.25V0H126V36.75Z" fill="#100F08"/>
<path d="M8.97745 82.425L1.52246 75.0225L52.5 24.045L73.5 45.045L117.022 1.52246L124.477 8.92498L73.5 59.9024L52.5 38.9024L8.97745 82.425Z" fill="#100F08"/>
<path d="M126 115.5H0V126H126V115.5Z" fill="#100F08"/>
<path d="M42 120.75H31.5V105H21V120.75H10.5V94.5H42V120.75Z" fill="#100F08"/>
<path d="M78.75 120.75H68.25V84H57.75V120.75H47.25V73.5H78.75V120.75Z" fill="#100F08"/>
<path d="M115.5 120.75H105V68.25H94.5V120.75H84V57.75H115.5V120.75Z" fill="#100F08"/>
</svg>
