<svg width="22" height="20" viewBox="0 0 22 20" fill="none" xmlns="http://www.w3.org/2000/svg">
<path fill-rule="evenodd" clip-rule="evenodd" d="M4.87436 2.5325C3.21537 3.29083 2 5.09454 2 7.24541C2 9.44281 2.89922 11.1365 4.18829 12.5881C5.25072 13.7844 6.53684 14.7759 7.79113 15.7429C8.08904 15.9726 8.38515 16.2009 8.67605 16.4302C9.20208 16.8449 9.67132 17.2088 10.1236 17.4731C10.5761 17.7376 10.9404 17.8583 11.25 17.8583C11.5596 17.8583 11.9239 17.7376 12.3764 17.4731C12.8287 17.2088 13.2979 16.8449 13.824 16.4302C14.1149 16.2009 14.411 15.9726 14.7089 15.7429C15.9632 14.7759 17.2493 13.7844 18.3117 12.5881C19.6008 11.1365 20.5 9.44281 20.5 7.24541C20.5 5.09454 19.2846 3.29083 17.6256 2.5325C16.0139 1.79579 13.8483 1.99089 11.7904 4.12904C11.649 4.27594 11.4539 4.35894 11.25 4.35894C11.0461 4.35894 10.851 4.27594 10.7096 4.12904C8.65166 1.99089 6.48607 1.79579 4.87436 2.5325ZM11.25 2.56712C8.93795 0.498551 6.34896 0.209179 4.25076 1.16827C2.03471 2.18123 0.5 4.53334 0.5 7.24541C0.5 9.91094 1.6105 11.9444 3.06672 13.5841C4.23287 14.8972 5.66022 15.9963 6.92083 16.9669C7.20659 17.1869 7.48378 17.4004 7.74742 17.6082C8.25965 18.012 8.80954 18.4426 9.36682 18.7682C9.92386 19.0937 10.5596 19.3583 11.25 19.3583C11.9404 19.3583 12.5761 19.0937 13.1332 18.7682C13.6905 18.4426 14.2403 18.012 14.7526 17.6082C15.0162 17.4004 15.2934 17.1869 15.5792 16.9669C16.8398 15.9963 18.2671 14.8972 19.4333 13.5841C20.8895 11.9444 22 9.91094 22 7.24541C22 4.53334 20.4653 2.18123 18.2492 1.16827C16.151 0.209179 13.5621 0.498551 11.25 2.56712Z" fill="#100F08"/>
</svg>
