<svg width="38" height="38" viewBox="0 0 38 38" fill="none" xmlns="http://www.w3.org/2000/svg">
<circle cx="19" cy="19" r="19" fill="#FBE10D"/>
<path fill-rule="evenodd" clip-rule="evenodd" d="M18.5814 11.2558C14.5356 11.2558 11.2558 14.5356 11.2558 18.5814C11.2558 22.6272 14.5356 25.907 18.5814 25.907C22.6272 25.907 25.907 22.6272 25.907 18.5814C25.907 14.5356 22.6272 11.2558 18.5814 11.2558ZM10 18.5814C10 13.842 13.842 10 18.5814 10C23.3208 10 27.1628 13.842 27.1628 18.5814C27.1628 20.7251 26.3768 22.6852 25.0772 24.1892L27.8161 26.9281C28.0613 27.1733 28.0613 27.5709 27.8161 27.8161C27.5709 28.0613 27.1733 28.0613 26.9281 27.8161L24.1892 25.0772C22.6852 26.3768 20.7251 27.1628 18.5814 27.1628C13.842 27.1628 10 23.3208 10 18.5814Z" fill="#1C274C"/>
</svg>
