<svg width="13" height="8" viewBox="0 0 13 8" fill="none" xmlns="http://www.w3.org/2000/svg">
<path d="M2.18831e-05 1.77956C-0.000965163 1.6258 0.0317754 1.47338 0.0963669 1.33104C0.160959 1.1887 0.256133 1.05924 0.376429 0.95007C0.497089 0.840568 0.640642 0.753654 0.798809 0.694342C0.956976 0.635029 1.12662 0.604492 1.29797 0.604492C1.46931 0.604492 1.63896 0.635029 1.79713 0.694342C1.9553 0.753654 2.09885 0.840568 2.21951 0.95007L6.48976 4.81712L10.786 1.10195C11.0292 0.884353 11.3581 0.762218 11.701 0.762218C12.0439 0.762218 12.3729 0.884353 12.6161 1.10195C12.7377 1.21056 12.8343 1.33977 12.9002 1.48214C12.9661 1.62451 13 1.77721 13 1.93144C13 2.08566 12.9661 2.23837 12.9002 2.38073C12.8343 2.5231 12.7377 2.65232 12.6161 2.76092L7.42428 7.27053C7.18166 7.48459 6.85546 7.60449 6.51572 7.60449C6.17598 7.60449 5.84978 7.48459 5.60715 7.27053L0.415365 2.59736C0.289552 2.4925 0.18807 2.36624 0.11678 2.22587C0.0454912 2.0855 0.00580686 1.93381 2.18831e-05 1.77956Z" fill="#D5AE3E"/>
</svg>
