<svg width="54" height="54" viewBox="0 0 54 54" fill="none" xmlns="http://www.w3.org/2000/svg">
<circle cx="27" cy="27" r="27" fill="#FBE10D"/>
<path d="M26.5 13C29.8152 13 32.9946 14.3165 35.3388 16.6599C37.683 19.0033 39 22.1816 39 25.4957C39 29.7637 36.6722 33.2569 34.2194 35.763C32.994 37.0015 31.6568 38.1244 30.225 39.1174L29.6333 39.52L29.3556 39.7047L28.8319 40.0379L28.3653 40.3225L27.7875 40.6585C27.3953 40.8823 26.9516 41 26.5 41C26.0484 41 25.6047 40.8823 25.2125 40.6585L24.6347 40.3225L23.9125 39.8782L23.6458 39.7047L23.0764 39.3257C21.5317 38.2809 20.0929 37.0877 18.7806 35.763C16.3278 33.2555 14 29.7637 14 25.4957C14 22.1816 15.317 19.0033 17.6612 16.6599C20.0054 14.3165 23.1848 13 26.5 13ZM26.5 21.3305C25.9528 21.3305 25.411 21.4382 24.9055 21.6475C24.4 21.8568 23.9406 22.1637 23.5537 22.5504C23.1668 22.9372 22.8599 23.3964 22.6505 23.9017C22.4411 24.4071 22.3333 24.9487 22.3333 25.4957C22.3333 26.0427 22.4411 26.5843 22.6505 27.0897C22.8599 27.595 23.1668 28.0542 23.5537 28.441C23.9406 28.8277 24.4 29.1346 24.9055 29.3439C25.411 29.5532 25.9528 29.6609 26.5 29.6609C27.6051 29.6609 28.6649 29.2221 29.4463 28.441C30.2277 27.6598 30.6667 26.6004 30.6667 25.4957C30.6667 24.391 30.2277 23.3316 29.4463 22.5504C28.6649 21.7693 27.6051 21.3305 26.5 21.3305Z" fill="black"/>
</svg>
