<svg width="118" height="118" viewBox="0 0 118 118" fill="none" xmlns="http://www.w3.org/2000/svg">
<path fill-rule="evenodd" clip-rule="evenodd" d="M58.9997 8.89551C31.3279 8.89551 8.89551 31.3279 8.89551 58.9997C8.89551 86.6714 31.3279 109.104 58.9997 109.104C86.6714 109.104 109.104 86.6714 109.104 58.9997C109.104 31.3279 86.6714 8.89551 58.9997 8.89551ZM0.770508 58.9997C0.770508 26.8406 26.8406 0.770508 58.9997 0.770508C91.1588 0.770508 117.229 26.8406 117.229 58.9997C117.229 91.1588 91.1588 117.229 58.9997 117.229C26.8406 117.229 0.770508 91.1588 0.770508 58.9997ZM30.8502 54.9372C30.6604 56.264 30.5622 57.6204 30.5622 58.9997C30.5622 60.379 30.6604 61.7353 30.8502 63.0622H48.1663C50.41 63.0622 52.2288 64.881 52.2288 67.1247C52.2288 69.3683 50.41 71.1872 48.1663 71.1872H33.2988C37.8629 80.7948 47.6556 87.4372 58.9997 87.4372C64.1861 87.4372 69.0368 86.0524 73.2155 83.6352C75.1576 82.5118 77.6427 83.1754 78.7662 85.1175C79.8897 87.0597 79.226 89.5448 77.2839 90.6683C71.9019 93.7816 65.6525 95.5622 58.9997 95.5622C43.0801 95.5622 29.5369 85.388 24.5177 71.1872H21.083C18.8393 71.1872 17.0205 69.3683 17.0205 67.1247C17.0205 64.881 18.8393 63.0622 21.083 63.0622H22.6603C22.5129 61.7283 22.4372 60.3728 22.4372 58.9997C22.4372 57.6265 22.5129 56.271 22.6603 54.9372H21.083C18.8393 54.9372 17.0205 53.1183 17.0205 50.8747C17.0205 48.631 18.8393 46.8122 21.083 46.8122H24.5176C29.5369 32.6114 43.0801 22.4372 58.9997 22.4372C65.6525 22.4372 71.9019 24.2178 77.2839 27.3311C79.226 28.4545 79.8897 30.9397 78.7662 32.8818C77.6427 34.8239 75.1576 35.4876 73.2155 34.3641C69.0368 31.9469 64.1861 30.5622 58.9997 30.5622C47.6556 30.5622 37.8629 37.2046 33.2988 46.8122H48.1663C50.41 46.8122 52.2288 48.631 52.2288 50.8747C52.2288 53.1183 50.41 54.9372 48.1663 54.9372H30.8502Z" fill="#100F08"/>
</svg>
