<svg width="126" height="126" viewBox="0 0 126 126" fill="none" xmlns="http://www.w3.org/2000/svg">
<path fill-rule="evenodd" clip-rule="evenodd" d="M81.8107 7.45501C88.6989 9.77309 93.1878 16.2544 93.1878 24.7516C93.1878 30.0937 90.151 35.0107 86.7668 38.9336C83.288 42.9663 78.885 46.5851 75.0337 49.3926C74.8686 49.5129 74.705 49.6324 74.5426 49.7511C70.8045 52.4824 67.7208 54.7356 63.0003 54.7356C58.2799 54.7356 55.1961 52.4823 51.4581 49.751C51.2957 49.6324 51.1321 49.5128 50.967 49.3925C47.1157 46.585 42.7127 42.9662 39.2338 38.9336C35.8497 35.0107 32.8128 30.0937 32.8128 24.7517C32.8128 16.2544 37.3017 9.77311 44.1899 7.45502C50.0651 5.47785 56.9039 6.78288 63.0003 11.2207C69.0968 6.78288 75.9356 5.47785 81.8107 7.45501ZM79.299 14.9187C75.8757 13.7667 70.771 14.512 65.6649 19.2054C64.1584 20.5902 61.8422 20.5902 60.3357 19.2054C55.2296 14.512 50.1249 13.7667 46.7017 14.9187C43.4179 16.0238 40.6878 19.1938 40.6878 24.7517C40.6878 27.2064 42.1815 30.2945 45.1967 33.7896C48.1172 37.175 51.9823 40.3873 55.6059 43.0288C60.0323 46.2555 61.0842 46.8606 63.0003 46.8606C64.9165 46.8606 65.9683 46.2556 70.3948 43.0289C74.0184 40.3874 77.8835 37.1751 80.804 33.7897C83.8191 30.2946 85.3128 27.2065 85.3128 24.7516C85.3128 19.1938 82.5827 16.0238 79.299 14.9187ZM45.5909 75.852C55.3864 73.9543 65.8724 74.3802 74.3574 79.441C75.5492 80.1518 76.6663 81.0375 77.6411 82.1324C79.6144 84.3488 80.6335 87.1036 80.6816 89.8654C81.6858 89.2178 82.6916 88.4985 83.7134 87.7266L93.2012 80.5595C97.9502 76.972 104.852 76.9714 109.602 80.5578C113.99 83.8715 115.74 89.8188 112.598 94.8548C110.365 98.434 107.003 103.385 103.581 106.554C100.121 109.758 95.1979 112.452 91.4736 114.25C86.9508 116.433 82.0661 117.639 77.316 118.408C67.6077 119.98 57.5058 119.739 47.9065 117.762C43.0009 116.751 37.9029 116.226 32.865 116.226H21.0003C18.8257 116.226 17.0628 114.463 17.0628 112.288C17.0628 110.114 18.8257 108.351 21.0003 108.351H32.865C38.441 108.351 44.0713 108.931 49.4956 110.049C58.1688 111.836 67.3058 112.051 76.0576 110.634C80.4095 109.93 84.4732 108.884 88.0505 107.157C91.6385 105.426 95.6723 103.145 98.2294 100.776C100.815 98.3816 103.709 94.2256 105.917 90.6864C106.583 89.6183 106.491 88.0768 104.856 86.8425C102.915 85.3768 99.8885 85.3772 97.9479 86.8431L88.4602 94.0103C84.6727 96.8714 80.0108 99.9323 74.2285 100.855C73.6451 100.948 73.0375 101.033 72.4069 101.108C72.1062 101.162 71.7931 101.198 71.4697 101.21C68.5176 101.504 65.0989 101.572 61.3269 101.216C59.1619 101.011 57.5726 99.0903 57.777 96.9254C57.9815 94.7604 59.9023 93.171 62.0672 93.3754C65.3613 93.6865 68.3166 93.6178 70.824 93.3604C70.8748 93.3551 70.9255 93.3498 70.976 93.3445C71.0807 93.2836 71.2407 93.1728 71.4506 92.9896C73.1278 91.5257 73.2776 89.0742 71.7593 87.3688C71.3744 86.9365 70.9006 86.5486 70.3234 86.2043C64.1224 82.5057 55.8405 81.8877 47.0887 83.5833C38.3866 85.2692 29.7411 89.1529 23.2781 93.7363C21.5042 94.9943 19.0465 94.5761 17.7885 92.8022C16.5305 91.0284 16.9487 88.5706 18.7226 87.3127C26.064 82.1063 35.7455 77.7594 45.5909 75.852Z" fill="#100F08"/>
</svg>
