<svg width="126" height="126" viewBox="0 0 126 126" fill="none" xmlns="http://www.w3.org/2000/svg">
<path d="M124.824 77.4161L105.361 58.0715C104.741 57.4655 103.96 57.1152 103.103 56.9826V14.4966C103.103 6.48606 96.5768 0 88.5266 0H37.4813C29.4215 0 22.8955 6.48606 22.8955 14.4966V56.9826C22.0476 57.1152 21.2568 57.4655 20.6376 58.0715L1.18363 77.4161C-0.636013 79.2246 -0.321643 82.4535 1.87908 84.6502C4.08933 86.8375 7.34757 87.1499 9.16721 85.3509L22.8955 71.697V111.503C22.8955 119.504 29.4215 126 37.4813 126H88.5266C96.5768 126 103.103 119.504 103.103 111.503V71.697L116.85 85.3509C118.66 87.1499 121.909 86.8375 124.119 84.6502C126.32 82.4535 126.634 79.2246 124.824 77.4161ZM37.1192 54.909H41.3682V87.6423H37.1192V54.909ZM37.1192 109.506L41.3682 95.9748H84.6301L88.8886 109.506H37.1192ZM88.8886 87.6423H84.6301V54.909H88.8886V87.6423ZM84.6301 46.6996H41.3682L37.1192 33.1689H88.8886L84.6301 46.6996Z" fill="#100F08"/>
</svg>
