<svg width="18" height="22" viewBox="0 0 18 22" fill="none" xmlns="http://www.w3.org/2000/svg">
<path d="M13.9585 8.75C13.5443 8.75 13.2085 8.41421 13.2085 8L13.2085 1C13.2085 0.585786 13.5443 0.25 13.9585 0.25C14.3727 0.25 14.7085 0.585786 14.7085 1L14.7085 8C14.7085 8.41421 14.3727 8.75 13.9585 8.75Z" fill="#1C274C"/>
<path fill-rule="evenodd" clip-rule="evenodd" d="M4 4.75C6.07107 4.75 7.75 6.42893 7.75 8.5C7.75 10.5711 6.07107 12.25 4 12.25C1.92893 12.25 0.25 10.5711 0.25 8.5C0.25 6.42893 1.92893 4.75 4 4.75ZM6.25 8.5C6.25 7.25736 5.24264 6.25 4 6.25C2.75736 6.25 1.75 7.25736 1.75 8.5C1.75 9.74264 2.75736 10.75 4 10.75C5.24264 10.75 6.25 9.74264 6.25 8.5Z" fill="#1C274C"/>
<path fill-rule="evenodd" clip-rule="evenodd" d="M14 17.25C16.0711 17.25 17.75 15.5711 17.75 13.5C17.75 11.4289 16.0711 9.75 14 9.75C11.9289 9.75 10.25 11.4289 10.25 13.5C10.25 15.5711 11.9289 17.25 14 17.25ZM16.25 13.5C16.25 14.7426 15.2426 15.75 14 15.75C12.7574 15.75 11.75 14.7426 11.75 13.5C11.75 12.2574 12.7574 11.25 14 11.25C15.2426 11.25 16.25 12.2574 16.25 13.5Z" fill="#1C274C"/>
<path d="M3.20852 14C3.20852 13.5858 3.54431 13.25 3.95852 13.25C4.37273 13.25 4.70852 13.5858 4.70852 14V21C4.70852 21.4142 4.37273 21.75 3.95852 21.75C3.54431 21.75 3.20852 21.4142 3.20852 21V14Z" fill="#1C274C"/>
<path d="M13.9585 21.75C13.5443 21.75 13.2085 21.4142 13.2085 21V19C13.2085 18.5858 13.5443 18.25 13.9585 18.25C14.3727 18.25 14.7085 18.5858 14.7085 19V21C14.7085 21.4142 14.3727 21.75 13.9585 21.75Z" fill="#1C274C"/>
<path d="M3.20852 1C3.20852 0.585787 3.54431 0.25 3.95852 0.25C4.37273 0.25 4.70852 0.585787 4.70852 1V3C4.70852 3.41421 4.37273 3.75 3.95852 3.75C3.54431 3.75 3.20852 3.41421 3.20852 3V1Z" fill="#1C274C"/>
</svg>
