<svg width="46" height="46" viewBox="0 0 46 46" fill="none" xmlns="http://www.w3.org/2000/svg">
<g filter="url(#filter0_d_513_2325)">
<circle cx="23" cy="22" r="19" fill="#FBE10D"/>
</g>
<path fill-rule="evenodd" clip-rule="evenodd" d="M16.3744 14.8899C14.7154 15.6483 13.5 17.452 13.5 19.6028C13.5 21.8002 14.3992 23.494 15.6883 24.9455C16.7507 26.1418 18.0368 27.1334 19.2911 28.1003C19.589 28.33 19.8851 28.5583 20.176 28.7876C20.7021 29.2023 21.1713 29.5663 21.6236 29.8306C22.0761 30.095 22.4404 30.2157 22.75 30.2157C23.0596 30.2157 23.4239 30.095 23.8764 29.8306C24.3287 29.5663 24.7979 29.2023 25.324 28.7876C25.6149 28.5583 25.911 28.33 26.2089 28.1003C27.4632 27.1334 28.7493 26.1418 29.8117 24.9455C31.1008 23.494 32 21.8002 32 19.6028C32 17.452 30.7846 15.6483 29.1256 14.8899C27.5139 14.1532 25.3483 14.3483 23.2904 16.4865C23.149 16.6334 22.9539 16.7164 22.75 16.7164C22.5461 16.7164 22.351 16.6334 22.2096 16.4865C20.1517 14.3483 17.9861 14.1532 16.3744 14.8899ZM22.75 14.9245C20.4379 12.856 17.849 12.5666 15.7508 13.5257C13.5347 14.5387 12 16.8908 12 19.6028C12 22.2684 13.1105 24.3018 14.5667 25.9415C15.7329 27.2547 17.1602 28.3537 18.4208 29.3243C18.7066 29.5443 18.9838 29.7578 19.2474 29.9656C19.7597 30.3694 20.3095 30.8 20.8668 31.1257C21.4239 31.4512 22.0596 31.7157 22.75 31.7157C23.4404 31.7157 24.0761 31.4512 24.6332 31.1257C25.1905 30.8 25.7403 30.3694 26.2526 29.9656C26.5162 29.7578 26.7934 29.5443 27.0792 29.3243C28.3398 28.3537 29.7671 27.2547 30.9333 25.9415C32.3895 24.3018 33.5 22.2684 33.5 19.6028C33.5 16.8908 31.9653 14.5387 29.7492 13.5257C27.651 12.5666 25.0621 12.856 22.75 14.9245Z" fill="#100F08"/>
<defs>
<filter id="filter0_d_513_2325" x="0" y="0" width="46" height="46" filterUnits="userSpaceOnUse" color-interpolation-filters="sRGB">
<feFlood flood-opacity="0" result="BackgroundImageFix"/>
<feColorMatrix in="SourceAlpha" type="matrix" values="0 0 0 0 0 0 0 0 0 0 0 0 0 0 0 0 0 0 127 0" result="hardAlpha"/>
<feOffset dy="1"/>
<feGaussianBlur stdDeviation="2"/>
<feComposite in2="hardAlpha" operator="out"/>
<feColorMatrix type="matrix" values="0 0 0 0 0 0 0 0 0 0 0 0 0 0 0 0 0 0 0.25 0"/>
<feBlend mode="normal" in2="BackgroundImageFix" result="effect1_dropShadow_513_2325"/>
<feBlend mode="normal" in="SourceGraphic" in2="effect1_dropShadow_513_2325" result="shape"/>
</filter>
</defs>
</svg>
