<svg width="60" height="60" viewBox="0 0 60 60" fill="none" xmlns="http://www.w3.org/2000/svg">
<g filter="url(#filter0_d_2498_1795)">
<circle cx="30" cy="29" r="26" fill="#100F08"/>
</g>
<path fill-rule="evenodd" clip-rule="evenodd" d="M20.9332 19.2708C18.663 20.3085 16.9999 22.7767 16.9999 25.72C16.9999 28.727 18.2304 31.0447 19.9944 33.031C21.4483 34.6681 23.2082 36.025 24.9246 37.3482C25.3323 37.6625 25.7375 37.9749 26.1355 38.2887C26.8554 38.8561 27.4975 39.3542 28.1164 39.7159C28.7357 40.0777 29.2341 40.2429 29.6578 40.2429C30.0815 40.2429 30.5799 40.0777 31.1992 39.7159C31.8181 39.3542 32.4602 38.8561 33.18 38.2887C33.5781 37.9749 33.9833 37.6625 34.391 37.3482C36.1074 36.025 37.8673 34.6681 39.3212 33.031C41.0852 31.0447 42.3157 28.727 42.3157 25.72C42.3157 22.7767 40.6526 20.3085 38.3824 19.2708C36.1769 18.2626 33.2134 18.5296 30.3972 21.4555C30.2038 21.6565 29.9368 21.7701 29.6578 21.7701C29.3788 21.7701 29.1118 21.6565 28.9183 21.4555C26.1022 18.5296 23.1387 18.2626 20.9332 19.2708ZM29.6578 19.3182C26.4939 16.4875 22.9511 16.0915 20.0799 17.4039C17.0474 18.7901 14.9473 22.0088 14.9473 25.72C14.9473 29.3676 16.4669 32.1502 18.4596 34.394C20.0554 36.191 22.0086 37.6949 23.7337 39.0231C24.1247 39.3242 24.504 39.6163 24.8648 39.9007C25.5657 40.4532 26.3182 41.0425 27.0808 41.4881C27.8431 41.9335 28.713 42.2956 29.6578 42.2956C30.6025 42.2956 31.4725 41.9335 32.2348 41.4881C32.9974 41.0425 33.7498 40.4532 34.4508 39.9007C34.8116 39.6163 35.1909 39.3242 35.5819 39.0231C37.307 37.6949 39.2602 36.191 40.856 34.394C42.8487 32.1502 44.3683 29.3676 44.3683 25.72C44.3683 22.0088 42.2682 18.7901 39.2357 17.4039C36.3645 16.0915 32.8217 16.4875 29.6578 19.3182Z" fill="#ED3241"/>
<path d="M16 25.8187C16 32.3158 21.4262 35.778 25.3983 38.8769C26.8 39.9704 28.15 41 29.5 41C30.85 41 32.2 39.9704 33.6017 38.8769C37.5738 35.778 43 32.3158 43 25.8187C43 19.3217 35.5748 14.7141 29.5 20.9603C23.4252 14.7141 16 19.3217 16 25.8187Z" fill="#ED3241"/>
<defs>
<filter id="filter0_d_2498_1795" x="0" y="0" width="60" height="60" filterUnits="userSpaceOnUse" color-interpolation-filters="sRGB">
<feFlood flood-opacity="0" result="BackgroundImageFix"/>
<feColorMatrix in="SourceAlpha" type="matrix" values="0 0 0 0 0 0 0 0 0 0 0 0 0 0 0 0 0 0 127 0" result="hardAlpha"/>
<feOffset dy="1"/>
<feGaussianBlur stdDeviation="2"/>
<feComposite in2="hardAlpha" operator="out"/>
<feColorMatrix type="matrix" values="0 0 0 0 0 0 0 0 0 0 0 0 0 0 0 0 0 0 0.25 0"/>
<feBlend mode="normal" in2="BackgroundImageFix" result="effect1_dropShadow_2498_1795"/>
<feBlend mode="normal" in="SourceGraphic" in2="effect1_dropShadow_2498_1795" result="shape"/>
</filter>
</defs>
</svg>
